<svg width="26" height="26" viewBox="0 0 26 26" fill="none" xmlns="http://www.w3.org/2000/svg">
<path d="M13 26C9.52758 26 6.26295 24.6478 3.80758 22.1924C1.3522 19.737 0 16.4724 0 13C0 9.52758 1.35225 6.263 3.80758 3.80758C6.2629 1.35215 9.52758 0 13 0C16.4724 0 19.737 1.3522 22.1924 3.80758C24.6478 6.26295 26 9.52758 26 13C26 16.4724 24.6477 19.737 22.1924 22.1924C19.7371 24.6478 16.4724 26 13 26V26ZM13 1.625C6.7278 1.625 1.625 6.7278 1.625 13C1.625 19.2722 6.7278 24.375 13 24.375C19.2722 24.375 24.375 19.2722 24.375 13C24.375 6.7278 19.2722 1.625 13 1.625Z" fill="white"/>
<path d="M16.25 18.2812H14.625C12.7591 18.2812 11.1162 17.3086 10.1765 15.8438H13.8125C14.2613 15.8438 14.625 15.48 14.625 15.0312C14.625 14.5825 14.2613 14.2188 13.8125 14.2188H9.48594C9.39311 13.8274 9.34375 13.4194 9.34375 13C9.34375 12.5806 9.39316 12.1726 9.48594 11.7812H13.8125C14.2613 11.7812 14.625 11.4175 14.625 10.9688C14.625 10.52 14.2613 10.1562 13.8125 10.1562H10.1765C11.1162 8.69136 12.7591 7.71875 14.625 7.71875H15.8438C16.2925 7.71875 16.6562 7.35495 16.6562 6.90625C16.6562 6.45755 16.2925 6.09375 15.8438 6.09375H14.625C11.8301 6.09375 9.41764 7.76268 8.33173 10.1562H7.3125C6.86375 10.1562 6.5 10.52 6.5 10.9688C6.5 11.4175 6.86375 11.7812 7.3125 11.7812H7.82646C7.75572 12.177 7.71875 12.5843 7.71875 13C7.71875 13.4157 7.75572 13.823 7.82646 14.2188H7.3125C6.86375 14.2188 6.5 14.5825 6.5 15.0312C6.5 15.48 6.86375 15.8438 7.3125 15.8438H8.33173C9.41759 18.2373 11.8301 19.9062 14.625 19.9062H16.25C16.6988 19.9062 17.0625 19.5425 17.0625 19.0938C17.0625 18.645 16.6988 18.2812 16.25 18.2812Z" fill="white"/>
</svg>
