<svg width="26" height="26" viewBox="0 0 26 26" fill="none" xmlns="http://www.w3.org/2000/svg">
<path d="M14.6318 6.52707H10.5523C10.1317 6.52707 9.79063 6.86812 9.79063 7.28879V13.0541H8.92059C8.49992 13.0541 8.15887 13.3952 8.15887 13.8159C8.15887 14.2365 8.49992 14.5776 8.92059 14.5776H9.79063V16.3177H8.92059C8.49992 16.3177 8.15887 16.6587 8.15887 17.0794C8.15887 17.5001 8.49992 17.8411 8.92059 17.8411H9.79063V19.5271C9.79063 19.9477 10.1317 20.2888 10.5523 20.2888C10.973 20.2888 11.3141 19.9477 11.3141 19.5271V17.8411H14.6318C15.0525 17.8411 15.3935 17.5001 15.3935 17.0794C15.3935 16.6587 15.0525 16.3177 14.6318 16.3177H11.3141V14.5776H14.6318C16.8514 14.5776 18.6571 12.7718 18.6571 10.5523C18.657 8.2779 16.8044 6.52707 14.6318 6.52707V6.52707ZM14.6318 13.0541H11.3141V8.05051H14.6318C16.003 8.05051 17.1336 9.15652 17.1336 10.5523C17.1336 11.9319 16.0113 13.0541 14.6318 13.0541Z" fill="white"/>
<path d="M13 0C5.83177 0 0 5.83177 0 13C0 20.1682 5.83177 26 13 26C20.1682 26 26 20.1682 26 13C26 5.83177 20.1682 0 13 0ZM13 24.4766C6.67179 24.4766 1.52344 19.3282 1.52344 13C1.52344 6.67179 6.67179 1.52344 13 1.52344C19.3282 1.52344 24.4766 6.67179 24.4766 13C24.4766 19.3282 19.3282 24.4766 13 24.4766Z" fill="white"/>
</svg>
